<svg width="92" height="27" viewBox="0 0 92 27" fill="none" xmlns="http://www.w3.org/2000/svg">
<path fill-rule="evenodd" clip-rule="evenodd" d="M5.05085e-07 13.8978C5.02504e-07 13.5 0.158014 13.1185 0.439279 12.8373C0.720544 12.556 1.10202 12.398 1.49979 12.398L86.5284 12.0002L77.0887 2.56351C76.8071 2.28189 76.6489 1.89993 76.6489 1.50166C76.6489 1.10339 76.8071 0.721432 77.0887 0.43981C77.3703 0.15819 77.7523 -2.4802e-05 78.1505 -2.49193e-05C78.5488 -2.50366e-05 78.9308 0.158189 79.2124 0.439809L91.2107 12.4381C91.3504 12.5774 91.4612 12.7429 91.5368 12.9252C91.6124 13.1074 91.6513 13.3027 91.6513 13.5C91.6513 13.6972 91.6124 13.8926 91.5368 14.0748C91.4612 14.257 91.3504 14.4225 91.2107 14.5618L79.2124 26.5601C78.9308 26.8418 78.5488 27 78.1505 27C77.7523 27 77.3703 26.8418 77.0887 26.5601C76.8071 26.2785 76.6489 25.8966 76.6489 25.4983C76.6489 25.1 76.8071 24.7181 77.0887 24.4364L86.5284 14.9998L1.49979 15.3976C1.10202 15.3976 0.720544 15.2395 0.439279 14.9583C0.158014 14.677 5.07666e-07 14.2955 5.05085e-07 13.8978Z" fill="white"/>
</svg>
