<svg width="172" height="35" viewBox="0 0 172 35" fill="none" xmlns="http://www.w3.org/2000/svg">
<path d="M48.873 9.04848L53.4002 21.7104L57.8802 9.04848H61.2992L54.7678 25.7895H52.0326L45.4541 9.04848H48.873Z" fill="white"/>
<path d="M68.4872 26.0253C67.4969 26.0253 66.6009 25.8603 65.7992 25.5302C64.9976 25.1843 64.3138 24.7206 63.7479 24.139C63.182 23.5574 62.7418 22.8815 62.4274 22.1112C62.1288 21.341 61.9794 20.5314 61.9794 19.6826C61.9794 18.8023 62.1288 17.977 62.4274 17.2068C62.7261 16.4208 63.1584 15.737 63.7243 15.1554C64.2902 14.5581 64.974 14.0865 65.7757 13.7407C66.5931 13.3949 67.5048 13.222 68.5108 13.222C69.5168 13.222 70.4128 13.3949 71.1988 13.7407C72.0005 14.0865 72.6764 14.5502 73.2266 15.1319C73.7925 15.7135 74.2169 16.3894 74.4999 17.1596C74.7985 17.9299 74.9479 18.7316 74.9479 19.5647C74.9479 19.769 74.94 19.9655 74.9243 20.1542C74.9243 20.3428 74.9086 20.5 74.8771 20.6257H65.3277C65.3748 21.113 65.4927 21.5453 65.6813 21.9226C65.87 22.2999 66.1136 22.6221 66.4123 22.8893C66.711 23.1566 67.0489 23.3609 67.4262 23.5024C67.8034 23.6439 68.1964 23.7146 68.6051 23.7146C69.2339 23.7146 69.8234 23.5653 70.3736 23.2666C70.9394 22.9522 71.3246 22.5435 71.5289 22.0405L74.2405 22.795C73.7846 23.7382 73.0537 24.5163 72.0477 25.1293C71.0573 25.7267 69.8705 26.0253 68.4872 26.0253ZM71.694 18.5744C71.6154 17.6469 71.2696 16.9081 70.6565 16.358C70.0592 15.7921 69.3282 15.5091 68.4637 15.5091C68.0392 15.5091 67.6384 15.5877 67.2611 15.7449C66.8996 15.8864 66.5773 16.0907 66.2944 16.358C66.0114 16.6252 65.7757 16.9474 65.587 17.3247C65.4141 17.702 65.3119 18.1185 65.2805 18.5744H71.694Z" fill="white"/>
<path d="M84.1844 25.1529C83.7599 25.3415 83.2334 25.5302 82.6046 25.7188C81.9915 25.9074 81.347 26.0017 80.6711 26.0017C80.231 26.0017 79.8144 25.9467 79.4214 25.8367C79.0442 25.7267 78.7062 25.5537 78.4075 25.318C78.1246 25.0664 77.8966 24.7521 77.7237 24.3748C77.5508 23.9818 77.4644 23.5102 77.4644 22.9601V15.8628H75.861V13.4342H77.4644V9.42575H80.6239V13.4342H83.2412V15.8628H80.6239V21.899C80.6239 22.3391 80.7418 22.6535 80.9776 22.8422C81.2134 23.0151 81.4964 23.1015 81.8265 23.1015C82.1566 23.1015 82.4788 23.0465 82.7932 22.9365C83.1076 22.8264 83.3591 22.7321 83.5477 22.6535L84.1844 25.1529Z" fill="white"/>
<path d="M98.6876 25.9074C97.5087 25.9074 96.4319 25.6716 95.4573 25.2001C94.4827 24.7128 93.6417 24.0761 92.9344 23.2902C92.2427 22.4885 91.7083 21.5768 91.331 20.555C90.9537 19.5333 90.7651 18.4879 90.7651 17.419C90.7651 16.3029 90.9616 15.234 91.3546 14.2123C91.7633 13.1905 92.3213 12.2867 93.0287 11.5007C93.7518 10.7147 94.6006 10.0938 95.5752 9.63796C96.5498 9.16638 97.6109 8.93059 98.7584 8.93059C99.9373 8.93059 101.014 9.1821 101.989 9.68511C102.963 10.1724 103.796 10.8169 104.488 11.6186C105.18 12.4203 105.714 13.332 106.091 14.3537C106.469 15.3755 106.657 16.413 106.657 17.4662C106.657 18.5822 106.453 19.6511 106.044 20.6729C105.651 21.6789 105.101 22.5749 104.394 23.3609C103.686 24.1312 102.845 24.7521 101.871 25.2236C100.896 25.6795 99.8351 25.9074 98.6876 25.9074ZM94.0426 17.419C94.0426 18.1421 94.1448 18.8416 94.3491 19.5175C94.5692 20.1935 94.8757 20.7908 95.2687 21.3095C95.6774 21.8283 96.1725 22.2448 96.7542 22.5592C97.3358 22.8736 97.996 23.0308 98.7348 23.0308C99.4893 23.0308 100.15 22.8736 100.715 22.5592C101.297 22.2291 101.784 21.7968 102.177 21.2624C102.57 20.7279 102.869 20.1306 103.073 19.4704C103.278 18.7944 103.38 18.1107 103.38 17.419C103.38 16.6959 103.27 15.9964 103.05 15.3205C102.83 14.6446 102.515 14.0472 102.107 13.5285C101.714 13.0097 101.226 12.601 100.645 12.3024C100.079 11.988 99.4343 11.8308 98.7112 11.8308C97.9567 11.8308 97.2886 11.9959 96.707 12.326C96.1411 12.6403 95.6538 13.0648 95.2451 13.5992C94.8521 14.118 94.5535 14.7153 94.3491 15.3912C94.1448 16.0514 94.0426 16.7274 94.0426 17.419Z" fill="white"/>
<path d="M120.224 25.7895H117.064V18.8573C117.064 17.867 116.891 17.1439 116.545 16.6881C116.199 16.2322 115.72 16.0043 115.107 16.0043C114.792 16.0043 114.47 16.0672 114.14 16.1929C113.81 16.3187 113.496 16.4994 113.197 16.7352C112.914 16.9553 112.655 17.2225 112.419 17.5369C112.183 17.8513 112.01 18.1971 111.9 18.5744V25.7895H108.741V13.4342H111.594V15.7213C112.049 14.9354 112.71 14.3223 113.574 13.8822C114.439 13.442 115.413 13.222 116.498 13.222C117.268 13.222 117.897 13.3634 118.384 13.6464C118.872 13.9293 119.249 14.2987 119.516 14.7546C119.783 15.2104 119.964 15.7292 120.058 16.3108C120.168 16.8924 120.224 17.4819 120.224 18.0792V25.7895Z" fill="white"/>
<path d="M127.906 17.3011C127.906 16.2794 128.087 15.2733 128.448 14.283C128.81 13.277 129.329 12.381 130.005 11.595C130.696 10.809 131.537 10.1724 132.527 9.68511C133.518 9.19782 134.65 8.95417 135.923 8.95417C137.416 8.95417 138.705 9.29213 139.79 9.96806C140.89 10.644 141.7 11.5243 142.218 12.6089L139.719 14.3302C139.53 13.8586 139.287 13.4656 138.988 13.1512C138.689 12.8211 138.359 12.5617 137.998 12.3731C137.652 12.1845 137.29 12.0509 136.913 11.9723C136.536 11.878 136.174 11.8308 135.829 11.8308C135.058 11.8308 134.382 11.9959 133.801 12.326C133.219 12.6561 132.732 13.0883 132.339 13.6228C131.962 14.1415 131.671 14.7389 131.466 15.4148C131.278 16.075 131.183 16.7352 131.183 17.3954C131.183 18.1342 131.294 18.8495 131.514 19.5411C131.749 20.217 132.072 20.8144 132.48 21.3331C132.905 21.8519 133.408 22.2684 133.989 22.5828C134.571 22.8972 135.208 23.0544 135.899 23.0544C136.261 23.0544 136.63 23.0072 137.007 22.9129C137.385 22.8186 137.746 22.6693 138.092 22.4649C138.454 22.2606 138.784 22.0012 139.082 21.6868C139.381 21.3567 139.625 20.9637 139.813 20.5079L142.478 22.0405C142.226 22.6693 141.857 23.2273 141.37 23.7146C140.898 24.1862 140.356 24.587 139.743 24.9171C139.13 25.2472 138.485 25.4987 137.809 25.6716C137.133 25.8446 136.465 25.931 135.805 25.931C134.642 25.931 133.573 25.6795 132.598 25.1765C131.639 24.6735 130.806 24.0211 130.099 23.2194C129.407 22.402 128.865 21.4824 128.472 20.4607C128.095 19.4232 127.906 18.37 127.906 17.3011Z" fill="white"/>
<path d="M147.758 26.0253C147.16 26.0253 146.602 25.931 146.084 25.7424C145.565 25.538 145.117 25.2629 144.74 24.9171C144.362 24.5556 144.064 24.139 143.844 23.6674C143.639 23.1959 143.537 22.6771 143.537 22.1112C143.537 21.5296 143.663 20.9952 143.914 20.5079C144.181 20.0048 144.543 19.5804 144.999 19.2346C145.47 18.8888 146.029 18.6215 146.673 18.4329C147.317 18.2286 148.025 18.1264 148.795 18.1264C149.345 18.1264 149.88 18.1735 150.398 18.2679C150.933 18.3622 151.405 18.4958 151.813 18.6687V17.9613C151.813 17.1439 151.577 16.5151 151.106 16.075C150.65 15.6349 149.966 15.4148 149.054 15.4148C148.394 15.4148 147.75 15.5327 147.121 15.7685C146.492 16.0043 145.848 16.3501 145.188 16.806L144.221 14.8017C145.808 13.7486 147.522 13.222 149.361 13.222C151.137 13.222 152.513 13.6621 153.487 14.5424C154.478 15.4069 154.973 16.6645 154.973 18.315V22.1584C154.973 22.4885 155.036 22.7243 155.161 22.8657C155.287 23.0072 155.507 23.0858 155.822 23.1015V25.7895C155.523 25.8524 155.24 25.8917 154.973 25.9074C154.721 25.9389 154.501 25.9546 154.313 25.9546C153.715 25.9389 153.259 25.8053 152.945 25.5537C152.631 25.2865 152.434 24.9328 152.356 24.4927L152.285 23.8089C151.735 24.532 151.067 25.0822 150.281 25.4594C149.495 25.8367 148.654 26.0253 147.758 26.0253ZM148.654 23.7146C149.188 23.7146 149.691 23.6203 150.163 23.4316C150.65 23.243 151.027 22.9915 151.294 22.6771C151.64 22.4099 151.813 22.1112 151.813 21.7811V20.3664C151.436 20.2249 151.027 20.1149 150.587 20.0363C150.147 19.942 149.723 19.8948 149.314 19.8948C148.496 19.8948 147.828 20.0834 147.31 20.4607C146.791 20.8222 146.532 21.286 146.532 21.8519C146.532 22.3863 146.736 22.8343 147.145 23.1959C147.553 23.5417 148.056 23.7146 148.654 23.7146Z" fill="white"/>
<path d="M157.97 8.5769H161.13V21.6868C161.13 22.6457 161.562 23.1251 162.427 23.1251C162.6 23.1251 162.796 23.0937 163.016 23.0308C163.252 22.9679 163.472 22.8972 163.676 22.8186L164.101 25.3415C163.676 25.5459 163.181 25.7031 162.615 25.8131C162.049 25.9231 161.539 25.9782 161.083 25.9782C160.092 25.9782 159.322 25.7188 158.772 25.2001C158.237 24.6656 157.97 23.9111 157.97 22.9365V8.5769Z" fill="white"/>
<path d="M165.454 8.5769H168.613V21.6868C168.613 22.6457 169.046 23.1251 169.91 23.1251C170.083 23.1251 170.28 23.0937 170.5 23.0308C170.735 22.9679 170.956 22.8972 171.16 22.8186L171.584 25.3415C171.16 25.5459 170.665 25.7031 170.099 25.8131C169.533 25.9231 169.022 25.9782 168.566 25.9782C167.576 25.9782 166.806 25.7188 166.256 25.2001C165.721 24.6656 165.454 23.9111 165.454 22.9365V8.5769Z" fill="white"/>
<path opacity="0.95" d="M13.3562 33.5964H5.60723C3.28673 33.5964 1.40723 31.7169 1.40723 29.3964V5.60344C1.40723 3.28294 3.28673 1.40344 5.60723 1.40344H13.3562C15.6767 1.40344 17.5562 3.28294 17.5562 5.60344V29.3964C17.5562 31.7169 15.6767 33.5964 13.3562 33.5964Z" fill="#F75146"/>
<path opacity="0.85" d="M1.40723 4.09494V9.08594C1.40723 10.4474 2.87023 11.5534 4.67623 11.5534H13.9652C15.9357 11.5534 17.5317 12.7574 17.5317 14.2449V14.8049C17.5317 16.2924 19.1277 17.4964 21.0982 17.4964H30.6882C32.6587 17.4964 33.5862 15.2844 33.5862 13.7969V4.54294C33.5862 3.05544 31.9902 1.40344 30.0197 1.40344H4.97723C3.00673 1.40344 1.40723 2.60744 1.40723 4.09494Z" fill="#F75146"/>
<path opacity="0.5" d="M1.41455 13.5799V4.98744C1.41455 3.00644 2.61505 1.40344 4.09555 1.40344H12.0826C12.9716 1.40344 13.8011 1.99144 14.2981 2.97144L20.7276 15.5959C21.2281 16.5759 22.1066 17.4999 22.9956 17.4999H30.9616C32.4421 17.4999 33.5901 19.1064 33.5901 21.0839V30.0089C33.5901 31.9899 32.3896 33.5929 30.9091 33.5929H22.9256C22.0156 33.5929 21.1686 32.9769 20.6751 31.9584L14.2946 18.7984C13.8011 17.7799 13.0031 17.4999 12.0966 17.4999H4.14805C2.66755 17.4999 1.41455 15.5574 1.41455 13.5799Z" fill="#180D7D"/>
<path opacity="0.25" d="M33.5935 13.5799V4.65494C33.5935 2.67394 31.609 1.40344 30.1285 1.40344H22.9255C22.0365 1.40344 21.207 1.99144 20.71 2.97144L14.2805 15.5959C13.78 16.5759 12.9505 17.4999 12.065 17.4999H4.09897C2.61847 17.4999 1.41797 18.7704 1.41797 20.7514V30.0124C1.41797 31.9934 2.61847 33.5964 4.09897 33.5964H12.0825C12.9925 33.5964 13.8395 32.9804 14.333 31.9619L20.717 18.7984C21.207 17.7799 22.054 17.4999 22.964 17.4999H30.9125C32.393 17.4999 33.5935 15.5574 33.5935 13.5799Z" fill="#180D7D"/>
</svg>
