<?xml version="1.0" encoding="utf-8"?>
<!-- Generator: Adobe Illustrator 27.9.0, SVG Export Plug-In . SVG Version: 6.00 Build 0)  -->
<svg version="1.1" id="Layer_1" xmlns="http://www.w3.org/2000/svg" xmlns:xlink="http://www.w3.org/1999/xlink" x="0px" y="0px"
	 viewBox="0 0 172 35" style="enable-background:new 0 0 172 35;" xml:space="preserve">
<style type="text/css">
	.st0{opacity:0.95;fill:#F75146;enable-background:new    ;}
	.st1{opacity:0.85;fill:#F75146;enable-background:new    ;}
	.st2{opacity:0.5;fill:#180D7D;enable-background:new    ;}
	.st3{opacity:0.25;fill:#180D7D;enable-background:new    ;}
	.st4{fill:#FFFFFF;}
</style>
<path class="st0" d="M13.4,33.6H5.6c-2.3,0-4.2-1.9-4.2-4.2V5.6c0-2.3,1.9-4.2,4.2-4.2h7.7c2.3,0,4.2,1.9,4.2,4.2v23.8
	C17.6,31.7,15.7,33.6,13.4,33.6z"/>
<path class="st1" d="M1.4,4.1v5c0,1.4,1.5,2.5,3.3,2.5H14c2,0,3.6,1.2,3.6,2.7v0.6c0,1.5,1.6,2.7,3.6,2.7h9.6c2,0,2.9-2.2,2.9-3.7
	V4.5c0-1.5-1.6-3.1-3.6-3.1H5C3,1.4,1.4,2.6,1.4,4.1z"/>
<path class="st2" d="M1.4,13.6V5c0-2,1.2-3.6,2.7-3.6h8C13,1.4,13.8,2,14.3,3l6.4,12.6c0.5,1,1.4,1.9,2.3,1.9h8
	c1.5,0,2.6,1.6,2.6,3.6V30c0,2-1.2,3.6-2.7,3.6h-8c-0.9,0-1.8-0.6-2.3-1.6l-6.4-13.2c-0.5-1-1.3-1.3-2.2-1.3H4.1
	C2.7,17.5,1.4,15.6,1.4,13.6z"/>
<path class="st3" d="M33.6,13.6V4.7c0-2-2-3.3-3.5-3.3h-7.2C22,1.4,21.2,2,20.7,3l-6.4,12.6c-0.5,1-1.3,1.9-2.2,1.9h-8
	c-1.5,0-2.7,1.3-2.7,3.3V30c0,2,1.2,3.6,2.7,3.6h8c0.9,0,1.8-0.6,2.3-1.6l6.4-13.2c0.5-1,1.3-1.3,2.2-1.3h7.9
	C32.4,17.5,33.6,15.6,33.6,13.6z"/>
<g>
	<path class="st4" d="M44.1,17.5c0-1.2,0.2-2.4,0.6-3.5c0.4-1.2,1-2.2,1.8-3.1c0.8-0.9,1.8-1.7,2.9-2.2c1.2-0.6,2.5-0.9,4-0.9
		c1.7,0,3.2,0.4,4.5,1.2c1.3,0.8,2.2,1.8,2.8,3.1l-2.9,2c-0.2-0.6-0.5-1-0.9-1.4c-0.3-0.4-0.7-0.7-1.1-0.9c-0.4-0.2-0.8-0.4-1.3-0.5
		c-0.4-0.1-0.9-0.2-1.3-0.2c-0.9,0-1.7,0.2-2.4,0.6c-0.7,0.4-1.2,0.9-1.7,1.5c-0.4,0.6-0.8,1.3-1,2.1c-0.2,0.8-0.3,1.6-0.3,2.3
		c0,0.9,0.1,1.7,0.4,2.5c0.3,0.8,0.6,1.5,1.1,2.1c0.5,0.6,1.1,1.1,1.7,1.5c0.7,0.4,1.4,0.5,2.2,0.5c0.4,0,0.9-0.1,1.3-0.2
		c0.4-0.1,0.9-0.3,1.3-0.5s0.8-0.5,1.1-0.9c0.3-0.4,0.6-0.8,0.9-1.4l3.1,1.8c-0.3,0.7-0.7,1.4-1.3,1.9c-0.6,0.6-1.2,1-1.9,1.4
		c-0.7,0.4-1.5,0.7-2.3,0.9c-0.8,0.2-1.6,0.3-2.3,0.3c-1.4,0-2.6-0.3-3.7-0.9c-1.1-0.6-2.1-1.4-2.9-2.3c-0.8-0.9-1.4-2-1.9-3.2
		C44.3,20,44.1,18.7,44.1,17.5z"/>
	<path class="st4" d="M67.2,27.7c-0.7,0-1.3-0.1-2-0.3c-0.6-0.2-1.1-0.6-1.6-1c-0.4-0.4-0.8-0.9-1-1.4s-0.4-1.2-0.4-1.8
		c0-0.7,0.2-1.3,0.5-1.9s0.7-1.1,1.3-1.5c0.5-0.4,1.2-0.7,1.9-0.9c0.8-0.2,1.6-0.3,2.5-0.3c0.6,0,1.3,0.1,1.9,0.2
		c0.6,0.1,1.2,0.3,1.6,0.5v-0.8c0-1-0.3-1.7-0.8-2.2c-0.5-0.5-1.3-0.8-2.4-0.8c-0.8,0-1.5,0.1-2.3,0.4c-0.7,0.3-1.5,0.7-2.3,1.2
		l-1.1-2.3c1.9-1.2,3.9-1.8,6-1.8c2.1,0,3.7,0.5,4.8,1.5c1.1,1,1.7,2.5,1.7,4.4v4.5c0,0.4,0.1,0.7,0.2,0.8c0.1,0.2,0.4,0.3,0.8,0.3
		v3.1c-0.3,0.1-0.7,0.1-1,0.2c-0.3,0-0.6,0-0.8,0c-0.7,0-1.2-0.2-1.6-0.5c-0.4-0.3-0.6-0.7-0.7-1.2l-0.1-0.8
		c-0.6,0.8-1.4,1.5-2.3,1.9C69.2,27.5,68.3,27.7,67.2,27.7z M68.3,25c0.6,0,1.2-0.1,1.8-0.3c0.6-0.2,1-0.5,1.3-0.9
		c0.4-0.3,0.6-0.7,0.6-1v-1.7c-0.4-0.2-0.9-0.3-1.4-0.4c-0.5-0.1-1-0.2-1.5-0.2c-1,0-1.7,0.2-2.3,0.6c-0.6,0.4-0.9,1-0.9,1.6
		c0,0.6,0.2,1.1,0.7,1.6S67.6,25,68.3,25z"/>
	<path class="st4" d="M79.1,7.3h3.7v15.3c0,1.1,0.5,1.7,1.5,1.7c0.2,0,0.4,0,0.7-0.1c0.3-0.1,0.5-0.2,0.8-0.2l0.5,2.9
		c-0.5,0.2-1.1,0.4-1.7,0.5c-0.7,0.1-1.3,0.2-1.8,0.2c-1.2,0-2-0.3-2.7-0.9c-0.6-0.6-0.9-1.5-0.9-2.6V7.3z"/>
	<path class="st4" d="M87.8,7.3h3.7v15.3c0,1.1,0.5,1.7,1.5,1.7c0.2,0,0.4,0,0.7-0.1c0.3-0.1,0.5-0.2,0.8-0.2l0.5,2.9
		c-0.5,0.2-1.1,0.4-1.7,0.5c-0.7,0.1-1.3,0.2-1.8,0.2c-1.2,0-2-0.3-2.7-0.9c-0.6-0.6-0.9-1.5-0.9-2.6V7.3z"/>
	<path class="st4" d="M106.5,27.7c-0.7,0-1.3-0.1-2-0.3c-0.6-0.2-1.1-0.6-1.6-1c-0.4-0.4-0.8-0.9-1-1.4c-0.2-0.6-0.4-1.2-0.4-1.8
		c0-0.7,0.2-1.3,0.5-1.9s0.7-1.1,1.3-1.5c0.5-0.4,1.2-0.7,1.9-0.9c0.8-0.2,1.6-0.3,2.5-0.3c0.6,0,1.3,0.1,1.9,0.2
		c0.6,0.1,1.2,0.3,1.6,0.5v-0.8c0-1-0.3-1.7-0.8-2.2c-0.5-0.5-1.3-0.8-2.4-0.8c-0.8,0-1.5,0.1-2.3,0.4c-0.7,0.3-1.5,0.7-2.3,1.2
		l-1.1-2.3c1.9-1.2,3.9-1.8,6-1.8c2.1,0,3.7,0.5,4.8,1.5c1.1,1,1.7,2.5,1.7,4.4v4.5c0,0.4,0.1,0.7,0.2,0.8s0.4,0.3,0.8,0.3v3.1
		c-0.3,0.1-0.7,0.1-1,0.2s-0.6,0-0.8,0c-0.7,0-1.2-0.2-1.6-0.5c-0.4-0.3-0.6-0.7-0.7-1.2l-0.1-0.8c-0.6,0.8-1.4,1.5-2.3,1.9
		C108.5,27.5,107.5,27.7,106.5,27.7z M107.5,25c0.6,0,1.2-0.1,1.8-0.3c0.6-0.2,1-0.5,1.3-0.9c0.4-0.3,0.6-0.7,0.6-1v-1.7
		c-0.4-0.2-0.9-0.3-1.4-0.4c-0.5-0.1-1-0.2-1.5-0.2c-1,0-1.7,0.2-2.3,0.6c-0.6,0.4-0.9,1-0.9,1.6c0,0.6,0.2,1.1,0.7,1.6
		C106.2,24.8,106.8,25,107.5,25z"/>
	<path class="st4" d="M126.3,7.9l5.3,14.8l5.2-14.8h4l-7.6,19.5H130l-7.7-19.5H126.3z"/>
	<path class="st4" d="M149.2,27.7c-1.2,0-2.2-0.2-3.1-0.6c-0.9-0.4-1.7-0.9-2.4-1.6c-0.7-0.7-1.2-1.5-1.5-2.4s-0.5-1.8-0.5-2.8
		c0-1,0.2-2,0.5-2.9c0.3-0.9,0.9-1.7,1.5-2.4c0.7-0.7,1.5-1.2,2.4-1.6c0.9-0.4,2-0.6,3.2-0.6c1.2,0,2.2,0.2,3.1,0.6s1.7,0.9,2.4,1.6
		c0.7,0.7,1.1,1.5,1.5,2.4c0.3,0.9,0.5,1.8,0.5,2.8c0,0.2,0,0.5,0,0.7c0,0.2,0,0.4-0.1,0.6h-11.1c0.1,0.6,0.2,1.1,0.4,1.5
		c0.2,0.4,0.5,0.8,0.9,1.1c0.3,0.3,0.7,0.6,1.2,0.7c0.4,0.2,0.9,0.2,1.4,0.2c0.7,0,1.4-0.2,2.1-0.5c0.7-0.4,1.1-0.8,1.3-1.4l3.2,0.9
		c-0.5,1.1-1.4,2-2.5,2.7C152.2,27.3,150.8,27.7,149.2,27.7z M153,19c-0.1-1.1-0.5-1.9-1.2-2.6c-0.7-0.7-1.6-1-2.6-1
		c-0.5,0-1,0.1-1.4,0.3s-0.8,0.4-1.1,0.7s-0.6,0.7-0.8,1.1c-0.2,0.4-0.3,0.9-0.4,1.5H153z"/>
	<path class="st4" d="M167.6,26.7c-0.5,0.2-1.1,0.4-1.8,0.7s-1.5,0.3-2.3,0.3c-0.5,0-1-0.1-1.4-0.2c-0.4-0.1-0.8-0.3-1.2-0.6
		c-0.3-0.3-0.6-0.7-0.8-1.1c-0.2-0.4-0.3-1-0.3-1.6v-8.3h-1.9V13h1.9V8.3h3.7V13h3.1v2.8h-3.1v7c0,0.5,0.1,0.9,0.4,1.1
		c0.3,0.2,0.6,0.3,1,0.3s0.8-0.1,1.1-0.2c0.4-0.1,0.7-0.2,0.9-0.3L167.6,26.7z"/>
</g>
</svg>
